<svg width="32" height="24" viewBox="0 0 32 24" fill="none" xmlns="http://www.w3.org/2000/svg">
<path d="M0.5 3C0.5 1.5623 1.52379 0.5 2.66667 0.5H29.3333C30.4762 0.5 31.5 1.5623 31.5 3V21C31.5 22.4377 30.4762 23.5 29.3333 23.5H2.66667C1.52379 23.5 0.5 22.4377 0.5 21V3Z" fill="white" stroke="#DCDCDC"/>
<path d="M23.1392 7.28614L22.5587 8.69373H23.7228L23.1392 7.28614ZM16.441 8.1584C16.5504 8.10127 16.6148 7.97702 16.6148 7.82272C16.6148 7.67151 16.5471 7.56201 16.4378 7.51055C16.3381 7.4535 16.1848 7.44691 16.0378 7.44691H14.9993V8.23119H16.0239C16.1879 8.23123 16.3251 8.22882 16.441 8.1584ZM3.13416 7.28614L2.56026 8.69373H3.71152L3.13416 7.28614ZM29.854 16.3035H28.2253V15.5462H29.8474C30.0082 15.5462 30.1208 15.5251 30.1886 15.4587C30.2528 15.3995 30.289 15.3159 30.2883 15.2285C30.2883 15.1255 30.2475 15.0438 30.1852 14.9949C30.1242 14.941 30.035 14.9165 29.8881 14.9165C29.0962 14.8896 28.1083 14.9409 28.1083 13.8234C28.1083 13.3112 28.4334 12.772 29.3184 12.772H30.9983V12.0693H29.4375C28.9665 12.0693 28.6243 12.1822 28.382 12.3578V12.0693H26.0734C25.7043 12.0693 25.271 12.1608 25.066 12.3578V12.0693H20.9432V12.3578C20.6152 12.1209 20.0615 12.0693 19.8061 12.0693H17.0867V12.3578C16.8272 12.1062 16.2499 12.0693 15.8982 12.0693H12.8548L12.1584 12.8235L11.5062 12.0693H6.9599V16.9976H11.4204L12.1379 16.2313L12.8139 16.9976L15.5633 17V15.8407H15.8337C16.1985 15.8465 16.6287 15.8317 17.0084 15.6675V16.9974H19.2762V15.7129H19.3856C19.5252 15.7129 19.539 15.7188 19.539 15.8584V16.9971H26.4284C26.8658 16.9971 27.323 16.8852 27.5762 16.6817V16.9971H29.7615C30.2162 16.9971 30.6603 16.9334 30.9982 16.7701V15.852C30.7934 16.1518 30.3941 16.3037 29.8539 16.3037L29.854 16.3035ZM15.8698 15.1399H14.8175V16.3245H13.1783L12.1398 15.1554L11.0606 16.3245H7.72003V12.7928H11.112L12.1496 13.9505L13.2223 12.7928H15.9171C16.5864 12.7928 17.3384 12.9783 17.3384 13.9563C17.3384 14.9374 16.607 15.1399 15.8698 15.1399ZM20.9299 14.9798C21.0491 15.1521 21.0662 15.3131 21.0697 15.6244V16.3245H20.2229V15.8827C20.2229 15.6702 20.2434 15.3556 20.0866 15.1914C19.9635 15.0649 19.7756 15.0347 19.4678 15.0347H18.5666V16.3245H17.7192V12.7928H19.6662C20.0933 12.7928 20.4042 12.8118 20.681 12.9595C20.9471 13.1204 21.1146 13.3409 21.1146 13.7437C21.1146 14.3074 20.7389 14.5949 20.5169 14.6833C20.7045 14.7526 20.8579 14.8769 20.9299 14.9798ZM24.4137 13.5232H22.4388V14.1652H24.3654V14.8858H22.4388V15.5885L24.4137 15.5917V16.3245H21.5989V12.7928H24.4137V13.5232ZM26.5808 16.3244H24.9382V15.5671H26.5742C26.7343 15.5671 26.8477 15.5459 26.9188 15.4796C26.9767 15.425 27.0184 15.3456 27.0184 15.2494C27.0184 15.1464 26.9733 15.0647 26.9155 15.0157C26.8509 14.9619 26.7619 14.9375 26.6151 14.9375C25.8264 14.9104 24.8387 14.9618 24.8387 13.8443C24.8387 13.332 25.1604 12.7928 26.0445 12.7928H27.7353V13.5444H26.1882C26.0348 13.5444 25.9351 13.5503 25.8503 13.6084C25.7578 13.6656 25.7236 13.7504 25.7236 13.8623C25.7236 13.9955 25.8021 14.0862 25.9081 14.1254C25.9971 14.1564 26.0926 14.1654 26.2363 14.1654L26.6904 14.1778C27.148 14.1888 27.4624 14.2682 27.6535 14.4618C27.8175 14.6318 27.9057 14.8465 27.9057 15.21C27.9057 15.9698 27.4313 16.3244 26.5808 16.3244ZM20.0399 13.5802C19.938 13.5196 19.7876 13.5164 19.6375 13.5164H18.599V14.3095H19.6236C19.7877 14.3095 19.9272 14.3037 20.0399 14.2367C20.1492 14.1706 20.2146 14.0488 20.2146 13.8978C20.2146 13.7467 20.1492 13.6374 20.0399 13.5802ZM29.4628 13.5163C29.3094 13.5163 29.2073 13.5221 29.1215 13.5801C29.0325 13.6374 28.9983 13.7222 28.9983 13.8342C28.9983 13.9673 29.0735 14.058 29.1827 14.0973C29.2718 14.1283 29.3672 14.1373 29.5077 14.1373L29.9649 14.1495C30.426 14.1609 30.734 14.2403 30.9218 14.4339C30.956 14.4607 30.9765 14.4909 31 14.5212V13.5164H29.4628L29.4628 13.5163ZM15.899 13.5163H14.7994V14.4158H15.8892C16.2133 14.4158 16.4148 14.2549 16.4149 13.9493C16.4148 13.6405 16.2035 13.5163 15.899 13.5163ZM8.56001 13.5163V14.1584H10.4114V14.879H8.56001V15.5816H10.6335L11.5968 14.5455L10.6744 13.5163H8.56001ZM13.9744 15.986V13.1546L12.6796 14.5475L13.9744 15.986ZM8.63078 10.3158V10.9243H15.6767L15.6734 9.63693H15.8098C15.9053 9.64026 15.9331 9.64906 15.9331 9.80681V10.9243H19.5773V10.6246C19.8712 10.7822 20.3283 10.9243 20.9299 10.9243H22.463L22.7912 10.1401H23.5186L23.8395 10.9243H26.7938V10.1794L27.2411 10.9243H29.6086V6H27.2657V6.58157L26.9376 6H24.5334V6.58157L24.2322 6H20.9846C20.441 6 19.9633 6.07592 19.5773 6.28755V6H17.3361V6.28755C17.0905 6.06942 16.7558 6 16.3837 6H8.19623L7.64691 7.27192L7.08275 6H4.50396V6.58157L4.22061 6H2.02133L1.00004 8.34138V10.2142L2.51023 6.68336H3.76329L5.19755 10.0264V6.68336H6.57408L7.67776 9.07862L8.69171 6.68336H10.0959V10.2142H9.23141L9.22826 7.44892L8.00531 10.2142H7.26483L6.03876 7.44647V10.2142H4.32334L3.9993 9.42667H2.24333L1.91594 10.2142H1V10.9246H2.44103L2.76592 10.1403H3.4934L3.81745 10.9246H6.65262V10.3249L6.90567 10.927H8.37747L8.63055 10.3159L8.63078 10.3158ZM19.7337 7.09493C20.0062 6.81312 20.4333 6.68316 21.0144 6.68316H21.8309V7.43972H21.0316C20.7239 7.43972 20.55 7.48552 20.3827 7.64894C20.2388 7.79757 20.1402 8.07862 20.1402 8.44868C20.1402 8.82698 20.2154 9.09971 20.372 9.27787C20.5019 9.41759 20.7379 9.45997 20.9599 9.45997H21.3388L22.5273 6.68328H23.7909L25.2188 10.0229V6.68332H26.5029L27.9854 9.14237V6.68332H28.8492V10.2141H27.6541L26.0555 7.56401V10.2141H24.338L24.0098 9.42651H22.2578L21.9395 10.2141H20.9525C20.5426 10.2141 20.0236 10.1234 19.7297 9.82352C19.4332 9.52376 19.2792 9.11766 19.2792 8.47564C19.279 7.95191 19.3711 7.47323 19.7337 7.09493ZM17.999 6.6832H18.8595V10.2141H17.999V6.6832ZM14.1193 6.6832H16.0591C16.49 6.6832 16.8077 6.69465 17.0804 6.85233C17.3471 7.01004 17.5071 7.24031 17.5071 7.63407C17.5071 8.19708 17.1316 8.48789 16.9129 8.57526C17.0974 8.64556 17.2551 8.76973 17.3302 8.87257C17.4493 9.04821 17.4698 9.20508 17.4698 9.52039V10.214H16.6192L16.616 9.76877C16.616 9.55626 16.6363 9.25071 16.4829 9.08095C16.3597 8.95682 16.1718 8.92978 15.8681 8.92978H14.9628V10.2141H14.1194L14.1193 6.6832ZM10.7195 6.6832H13.5368V7.41847H11.563V8.05491H13.4895V8.77869H11.563V9.48383H13.5368V10.214H10.7195V6.6832Z" fill="#2557D6"/>
</svg>
