<svg width="181" height="53" viewBox="0 0 181 53" fill="none" xmlns="http://www.w3.org/2000/svg">
<path d="M179.248 46.503C179.248 49.2741 176.956 51.5188 174.122 51.5188H6.37999C3.54706 51.5188 1.24756 49.2741 1.24756 46.503V6.50345C1.24756 3.73362 3.54706 1.48108 6.37999 1.48108H174.12C176.956 1.48108 179.246 3.73362 179.246 6.50345L179.248 46.503Z" fill="black"/>
<path d="M173.581 1.54162C176.668 1.54162 179.179 3.9905 179.179 7V46C179.179 49.0095 176.668 51.4584 173.581 51.4584H6.91423C3.82756 51.4584 1.31589 49.0095 1.31589 46V7C1.31589 3.9905 3.82756 1.54162 6.91423 1.54162H173.581ZM173.581 0.500003H6.91423C3.24923 0.500003 0.247559 3.42663 0.247559 7V46C0.247559 49.5734 3.24923 52.5 6.91423 52.5H173.581C177.246 52.5 180.248 49.5734 180.248 46V7C180.248 3.42663 177.246 0.500003 173.581 0.500003Z" fill="#A6A6A6"/>
<path d="M40.4183 26.2192C40.3796 22.0294 43.9369 19.991 44.0996 19.8961C42.0849 17.0322 38.9623 16.6409 37.8649 16.6097C35.2423 16.3406 32.6983 18.1398 31.3623 18.1398C29.9996 18.1398 27.9423 16.6357 25.7249 16.6799C22.8716 16.7228 20.2023 18.3335 18.7383 20.8347C15.7169 25.9345 17.9703 33.429 20.8649 37.5513C22.3129 39.5702 24.0049 41.8244 26.2196 41.7451C28.3863 41.658 29.1956 40.3983 31.8103 40.3983C34.4009 40.3983 35.1609 41.7451 37.4196 41.6944C39.7449 41.658 41.2089 39.6664 42.6063 37.6293C44.2796 35.3153 44.9516 33.0365 44.9783 32.9195C44.9236 32.9013 40.4623 31.2411 40.4183 26.2192Z" fill="white"/>
<path d="M36.1516 13.8979C37.3169 12.477 38.1143 10.5439 37.8929 8.58215C36.2063 8.65495 34.0969 9.71965 32.8823 11.1094C31.8076 12.334 30.8476 14.3412 31.0956 16.2288C32.9903 16.3666 34.9356 15.2967 36.1516 13.8979Z" fill="white"/>
<path d="M71.7742 41.4551H68.7462L67.0875 36.3734H61.3222L59.7422 41.4551H56.7942L62.5062 24.1547H66.0342L71.7742 41.4551ZM66.5875 34.2414L65.0875 29.7239C64.9289 29.2624 64.6315 28.1756 64.1929 26.4648H64.1395C63.9649 27.2006 63.6835 28.2874 63.2969 29.7239L61.8235 34.2414H66.5875Z" fill="white"/>
<path d="M86.4634 35.0643C86.4634 37.1859 85.8754 38.8629 84.6994 40.094C83.6461 41.1899 82.3381 41.7372 80.7768 41.7372C79.0914 41.7372 77.8808 41.147 77.1434 39.9666H77.0901V46.5381H74.2474V33.087C74.2474 31.7532 74.2114 30.3843 74.1421 28.9803H76.6421L76.8008 30.9576H76.8541C77.8021 29.4678 79.2408 28.7242 81.1714 28.7242C82.6808 28.7242 83.9408 29.3053 84.9488 30.4688C85.9594 31.6336 86.4634 33.165 86.4634 35.0643ZM83.5674 35.1657C83.5674 33.9515 83.2874 32.9505 82.7248 32.1627C82.1101 31.3411 81.2848 30.9303 80.2501 30.9303C79.5488 30.9303 78.9114 31.1591 78.3421 31.6102C77.7714 32.0652 77.3981 32.6593 77.2234 33.3951C77.1354 33.7383 77.0914 34.0191 77.0914 34.2401V36.3201C77.0914 37.2275 77.3768 37.9932 77.9474 38.6185C78.5181 39.2438 79.2594 39.5558 80.1714 39.5558C81.2421 39.5558 82.0754 39.1528 82.6714 38.3494C83.2688 37.5447 83.5674 36.4839 83.5674 35.1657Z" fill="white"/>
<path d="M101.18 35.0643C101.18 37.1859 100.592 38.8629 99.4143 40.094C98.3623 41.1899 97.0543 41.7372 95.493 41.7372C93.8076 41.7372 92.597 41.147 91.861 39.9666H91.8076V46.5381H88.965V33.087C88.965 31.7532 88.929 30.3843 88.8596 28.9803H91.3596L91.5183 30.9576H91.5716C92.5183 29.4678 93.957 28.7242 95.889 28.7242C97.397 28.7242 98.657 29.3053 99.6676 30.4688C100.674 31.6336 101.18 33.165 101.18 35.0643ZM98.2836 35.1657C98.2836 33.9515 98.0023 32.9505 97.4396 32.1627C96.825 31.3411 96.0023 30.9303 94.9663 30.9303C94.2636 30.9303 93.6276 31.1591 93.057 31.6102C92.4863 32.0652 92.1143 32.6593 91.9396 33.3951C91.8529 33.7383 91.8076 34.0191 91.8076 34.2401V36.3201C91.8076 37.2275 92.093 37.9932 92.661 38.6185C93.2316 39.2425 93.973 39.5558 94.8876 39.5558C95.9583 39.5558 96.7916 39.1528 97.3876 38.3494C97.985 37.5447 98.2836 36.4839 98.2836 35.1657Z" fill="white"/>
<path d="M117.633 36.6035C117.633 38.0751 117.109 39.2724 116.057 40.1967C114.901 41.2068 113.291 41.7112 111.223 41.7112C109.314 41.7112 107.783 41.3524 106.625 40.6335L107.283 38.3234C108.531 39.0592 109.901 39.4284 111.393 39.4284C112.463 39.4284 113.297 39.1918 113.895 38.7212C114.491 38.2506 114.789 37.6188 114.789 36.831C114.789 36.129 114.543 35.5375 114.051 35.0578C113.562 34.5781 112.745 34.1322 111.603 33.7201C108.497 32.5904 106.945 30.9355 106.945 28.7593C106.945 27.3371 107.489 26.171 108.578 25.2636C109.663 24.3549 111.111 23.9012 112.922 23.9012C114.537 23.9012 115.878 24.1755 116.949 24.7228L116.238 26.9822C115.238 26.4518 114.107 26.1866 112.842 26.1866C111.842 26.1866 111.061 26.4271 110.501 26.9055C110.027 27.3332 109.79 27.8545 109.79 28.472C109.79 29.1558 110.061 29.7213 110.605 30.1659C111.078 30.5767 111.938 31.0213 113.186 31.501C114.713 32.1003 115.834 32.801 116.555 33.6044C117.274 34.4052 117.633 35.4075 117.633 36.6035Z" fill="white"/>
<path d="M127.031 31.0604H123.898V37.1171C123.898 38.6576 124.45 39.4272 125.557 39.4272C126.065 39.4272 126.486 39.3843 126.819 39.2985L126.898 41.4032C126.338 41.6073 125.601 41.71 124.688 41.71C123.565 41.71 122.688 41.3759 122.054 40.709C121.424 40.0408 121.106 38.9202 121.106 37.3459V31.0578H119.24V28.9778H121.106V26.6937L123.898 25.8721V28.9778H127.031V31.0604Z" fill="white"/>
<path d="M141.169 35.1151C141.169 37.0326 140.606 38.6069 139.483 39.838C138.306 41.1055 136.743 41.7373 134.795 41.7373C132.918 41.7373 131.423 41.1302 130.309 39.916C129.194 38.7018 128.637 37.1691 128.637 35.3218C128.637 33.3887 129.21 31.8053 130.361 30.5742C131.509 29.3418 133.058 28.7256 135.006 28.7256C136.883 28.7256 138.394 29.3327 139.534 30.5482C140.625 31.7273 141.169 33.2496 141.169 35.1151ZM138.219 35.2048C138.219 34.0543 137.967 33.0676 137.457 32.2447C136.861 31.2489 136.009 30.7523 134.905 30.7523C133.762 30.7523 132.894 31.2502 132.298 32.2447C131.787 33.0689 131.535 34.0712 131.535 35.2568C131.535 36.4073 131.787 37.394 132.298 38.2156C132.913 39.2114 133.771 39.708 134.879 39.708C135.965 39.708 136.817 39.201 137.431 38.1896C137.955 37.3511 138.219 36.354 138.219 35.2048Z" fill="white"/>
<path d="M150.409 31.4178C150.128 31.3671 149.828 31.3411 149.513 31.3411C148.513 31.3411 147.739 31.709 147.195 32.4461C146.722 33.0961 146.485 33.9177 146.485 34.9096V41.4551H143.643L143.67 32.9089C143.67 31.4711 143.634 30.162 143.563 28.9816H146.039L146.143 31.3684H146.222C146.522 30.5481 146.995 29.8877 147.643 29.3924C148.277 28.9465 148.961 28.7242 149.698 28.7242C149.961 28.7242 150.198 28.7424 150.409 28.7749V31.4178Z" fill="white"/>
<path d="M163.122 34.6275C163.122 35.1241 163.089 35.5427 163.018 35.8846H154.49C154.523 37.117 154.935 38.0595 155.727 38.7095C156.446 39.2906 157.375 39.5818 158.517 39.5818C159.779 39.5818 160.931 39.3855 161.967 38.9916L162.413 40.9156C161.202 41.4304 159.773 41.6865 158.123 41.6865C156.139 41.6865 154.582 41.1171 153.449 39.9796C152.318 38.8421 151.751 37.3146 151.751 35.3984C151.751 33.5173 152.278 31.9508 153.333 30.7015C154.437 29.3677 155.929 28.7008 157.806 28.7008C159.65 28.7008 161.046 29.3677 161.994 30.7015C162.745 31.761 163.122 33.0714 163.122 34.6275ZM160.411 33.9086C160.43 33.087 160.245 32.3772 159.859 31.7779C159.367 31.007 158.611 30.6222 157.594 30.6222C156.665 30.6222 155.909 30.9979 155.331 31.7519C154.858 32.3512 154.577 33.0701 154.49 33.9073H160.411V33.9086Z" fill="white"/>
<path d="M65.6475 13.5117C65.6475 15.0418 65.1769 16.1936 64.2369 16.9671C63.3662 17.6808 62.1288 18.0383 60.5262 18.0383C59.7315 18.0383 59.0515 18.0045 58.4822 17.9369V9.57658C59.2248 9.45958 60.0248 9.39978 60.8888 9.39978C62.4155 9.39978 63.5662 9.72348 64.3422 10.3709C65.2115 11.1028 65.6475 12.1493 65.6475 13.5117ZM64.1742 13.5494C64.1742 12.5575 63.9049 11.797 63.3662 11.2666C62.8275 10.7375 62.0409 10.4723 61.0048 10.4723C60.5648 10.4723 60.1902 10.5009 59.8795 10.5607V16.9164C60.0515 16.9424 60.3662 16.9541 60.8235 16.9541C61.8928 16.9541 62.7182 16.6642 63.2995 16.0844C63.8809 15.5046 64.1742 14.6596 64.1742 13.5494Z" fill="white"/>
<path d="M73.4595 14.8482C73.4595 15.7907 73.1835 16.5629 72.6315 17.1687C72.0528 17.7914 71.2861 18.1021 70.3288 18.1021C69.4061 18.1021 68.6715 17.8044 68.1235 17.2064C67.5768 16.6097 67.3035 15.857 67.3035 14.9496C67.3035 14.0006 67.5848 13.2219 68.1501 12.6174C68.7155 12.0129 69.4755 11.71 70.4328 11.71C71.3555 11.71 72.0968 12.0077 72.6581 12.6044C73.1915 13.1842 73.4595 13.933 73.4595 14.8482ZM72.0101 14.8924C72.0101 14.3269 71.8848 13.842 71.6355 13.4377C71.3421 12.9489 70.9248 12.7045 70.3821 12.7045C69.8208 12.7045 69.3941 12.9489 69.1008 13.4377C68.8501 13.842 68.7261 14.3347 68.7261 14.9171C68.7261 15.4826 68.8515 15.9675 69.1008 16.3718C69.4035 16.8606 69.8248 17.105 70.3688 17.105C70.9021 17.105 71.3208 16.8567 71.6221 16.3588C71.8808 15.9467 72.0101 15.4579 72.0101 14.8924Z" fill="white"/>
<path d="M83.9343 11.8347L81.9676 17.9629H80.6876L79.873 15.3018C79.6663 14.6375 79.4983 13.9771 79.3676 13.3219H79.3423C79.221 13.9953 79.053 14.6544 78.837 15.3018L77.9716 17.9629H76.677L74.8276 11.8347H76.2636L76.9743 14.748C77.1463 15.437 77.2876 16.0935 77.401 16.7149H77.4263C77.5303 16.2027 77.7023 15.5501 77.945 14.761L78.837 11.836H79.9756L80.8303 14.6986C81.037 15.3967 81.205 16.0688 81.3343 16.7162H81.373C81.4676 16.0857 81.6103 15.4136 81.7996 14.6986L82.5623 11.836H83.9343V11.8347Z" fill="white"/>
<path d="M91.1783 17.963H89.7809V14.453C89.7809 13.3714 89.3596 12.8306 88.5143 12.8306C88.0996 12.8306 87.7649 12.9788 87.5049 13.2765C87.2476 13.5742 87.1169 13.9252 87.1169 14.3269V17.9617H85.7196V13.5859C85.7196 13.0477 85.7023 12.464 85.6689 11.8322H86.8969L86.9623 12.7903H87.0009C87.1636 12.4926 87.4063 12.2469 87.7249 12.0506C88.1036 11.8218 88.5276 11.7061 88.9916 11.7061C89.5783 11.7061 90.0663 11.8907 90.4543 12.2612C90.9369 12.7149 91.1783 13.3922 91.1783 14.2918V17.963Z" fill="white"/>
<path d="M95.0315 17.9629H93.6355V9.02283H95.0315V17.9629Z" fill="white"/>
<path d="M103.258 14.8482C103.258 15.7907 102.982 16.5629 102.43 17.1687C101.852 17.7914 101.084 18.1021 100.128 18.1021C99.2036 18.1021 98.469 17.8044 97.9223 17.2064C97.3756 16.6097 97.1023 15.857 97.1023 14.9496C97.1023 14.0006 97.3836 13.2219 97.949 12.6174C98.5143 12.0129 99.2743 11.71 100.23 11.71C101.154 11.71 101.894 12.0077 102.457 12.6044C102.99 13.1842 103.258 13.933 103.258 14.8482ZM101.808 14.8924C101.808 14.3269 101.682 13.842 101.433 13.4377C101.141 12.9489 100.722 12.7045 100.181 12.7045C99.6183 12.7045 99.1916 12.9489 98.8996 13.4377C98.649 13.842 98.525 14.3347 98.525 14.9171C98.525 15.4826 98.6503 15.9675 98.8996 16.3718C99.2023 16.8606 99.6236 17.105 100.168 17.105C100.701 17.105 101.118 16.8567 101.42 16.3588C101.68 15.9467 101.808 15.4579 101.808 14.8924Z" fill="white"/>
<path d="M110.021 17.963H108.766L108.662 17.2571H108.623C108.194 17.82 107.582 18.1021 106.788 18.1021C106.194 18.1021 105.714 17.9162 105.353 17.547C105.025 17.2116 104.861 16.7943 104.861 16.299C104.861 15.5502 105.181 14.9795 105.825 14.5843C106.468 14.1891 107.372 13.9954 108.536 14.0045V13.8901C108.536 13.0828 108.101 12.6798 107.23 12.6798C106.61 12.6798 106.064 12.8319 105.592 13.1335L105.308 12.2391C105.892 11.8868 106.613 11.71 107.464 11.71C109.106 11.71 109.93 12.555 109.93 14.245V16.5018C109.93 17.1141 109.961 17.6016 110.021 17.963ZM108.57 15.857V14.9119C107.029 14.8859 106.258 15.298 106.258 16.1469C106.258 16.4667 106.346 16.7059 106.526 16.8658C106.706 17.0257 106.936 17.105 107.209 17.105C107.516 17.105 107.802 17.0101 108.064 16.8216C108.326 16.6318 108.488 16.3913 108.548 16.0962C108.562 16.0299 108.57 15.9493 108.57 15.857Z" fill="white"/>
<path d="M117.961 17.9629H116.721L116.656 16.9788H116.617C116.221 17.7276 115.546 18.102 114.598 18.102C113.841 18.102 113.21 17.8121 112.71 17.2323C112.21 16.6525 111.961 15.8998 111.961 14.9755C111.961 13.9836 112.232 13.1802 112.776 12.5666C113.302 11.9946 113.948 11.7086 114.716 11.7086C115.56 11.7086 116.15 11.9855 116.486 12.5406H116.513V9.02283H117.912V16.3119C117.912 16.9086 117.928 17.4585 117.961 17.9629ZM116.513 15.3785V14.3567C116.513 14.1799 116.5 14.0369 116.474 13.9277C116.396 13.6001 116.226 13.3245 115.969 13.1022C115.709 12.8799 115.396 12.7681 115.034 12.7681C114.513 12.7681 114.105 12.9696 113.805 13.3739C113.508 13.7782 113.357 14.2943 113.357 14.9248C113.357 15.5306 113.5 16.022 113.786 16.4003C114.089 16.8033 114.497 17.0048 115.008 17.0048C115.466 17.0048 115.833 16.8371 116.112 16.5004C116.381 16.1897 116.513 15.8153 116.513 15.3785Z" fill="white"/>
<path d="M129.912 14.8482C129.912 15.7907 129.636 16.5629 129.084 17.1687C128.505 17.7914 127.74 18.1021 126.781 18.1021C125.86 18.1021 125.125 17.8044 124.576 17.2064C124.029 16.6097 123.756 15.857 123.756 14.9496C123.756 14.0006 124.037 13.2219 124.602 12.6174C125.168 12.0129 125.928 11.71 126.886 11.71C127.808 11.71 128.55 12.0077 129.11 12.6044C129.644 13.1842 129.912 13.933 129.912 14.8482ZM128.464 14.8924C128.464 14.3269 128.338 13.842 128.089 13.4377C127.794 12.9489 127.378 12.7045 126.834 12.7045C126.274 12.7045 125.848 12.9489 125.553 13.4377C125.302 13.842 125.178 14.3347 125.178 14.9171C125.178 15.4826 125.304 15.9675 125.553 16.3718C125.856 16.8606 126.277 17.105 126.821 17.105C127.354 17.105 127.774 16.8567 128.076 16.3588C128.333 15.9467 128.464 15.4579 128.464 14.8924Z" fill="white"/>
<path d="M137.425 17.963H136.029V14.453C136.029 13.3714 135.607 12.8306 134.761 12.8306C134.346 12.8306 134.011 12.9788 133.753 13.2765C133.494 13.5742 133.365 13.9252 133.365 14.3269V17.9617H131.966V13.5859C131.966 13.0477 131.95 12.464 131.917 11.8322H133.143L133.209 12.7903H133.247C133.411 12.4926 133.654 12.2469 133.971 12.0506C134.351 11.8218 134.774 11.7061 135.239 11.7061C135.825 11.7061 136.313 11.8907 136.701 12.2612C137.185 12.7149 137.425 13.3922 137.425 14.2918V17.963Z" fill="white"/>
<path d="M146.829 12.8553H145.29V15.8323C145.29 16.5889 145.564 16.9672 146.105 16.9672C146.356 16.9672 146.564 16.9464 146.728 16.9035L146.764 17.937C146.488 18.0384 146.125 18.0891 145.678 18.0891C145.126 18.0891 144.697 17.9253 144.386 17.5977C144.074 17.2701 143.92 16.7189 143.92 15.9454V12.8553H143.001V11.8348H143.92V10.7116L145.289 10.3086V11.8335H146.828V12.8553H146.829Z" fill="white"/>
<path d="M154.226 17.9629H152.828V14.4789C152.828 13.3804 152.406 12.8305 151.562 12.8305C150.914 12.8305 150.472 13.149 150.229 13.786C150.188 13.9199 150.164 14.0837 150.164 14.2761V17.9616H148.768V9.02283H150.164V12.7161H150.19C150.63 12.044 151.261 11.7086 152.078 11.7086C152.657 11.7086 153.136 11.8932 153.516 12.2637C153.989 12.7252 154.226 13.4116 154.226 14.319V17.9629Z" fill="white"/>
<path d="M161.857 14.6089C161.857 14.8533 161.838 15.0587 161.805 15.2264H157.614C157.633 15.8322 157.833 16.2937 158.221 16.6135C158.575 16.8995 159.033 17.0425 159.593 17.0425C160.213 17.0425 160.778 16.9463 161.287 16.7526L161.506 17.699C160.91 17.9512 160.209 18.0773 159.397 18.0773C158.423 18.0773 157.657 17.7978 157.102 17.2388C156.545 16.6798 156.269 15.9297 156.269 14.9885C156.269 14.0642 156.526 13.2946 157.045 12.681C157.586 12.0258 158.318 11.6982 159.242 11.6982C160.146 11.6982 160.833 12.0258 161.297 12.681C161.671 13.201 161.857 13.8445 161.857 14.6089ZM160.523 14.2566C160.534 13.8523 160.442 13.5039 160.253 13.2101C160.01 12.8318 159.641 12.642 159.141 12.642C158.685 12.642 158.313 12.8266 158.029 13.1971C157.797 13.4922 157.659 13.8445 157.614 14.2566H160.523Z" fill="white"/>
</svg>
