<svg width="30" height="29" viewBox="0 0 30 29" fill="none" xmlns="http://www.w3.org/2000/svg">
<path fill-rule="evenodd" clip-rule="evenodd" d="M15.02 3.27028C8.65547 3.27028 3.47768 8.44807 3.47768 14.8126C3.47768 21.1772 8.65547 26.3552 15.02 26.3552C21.3846 26.3552 26.5626 21.1772 26.5626 14.8126C26.5626 8.44807 21.3846 3.27028 15.02 3.27028ZM15.02 29.0171C7.18775 29.0171 0.815796 22.6449 0.815796 14.8126C0.815796 6.98034 7.18775 0.608398 15.02 0.608398C22.8523 0.608398 29.2245 6.98034 29.2245 14.8126C29.2245 22.6449 22.8523 29.0171 15.02 29.0171ZM8.80644 10.6549H10.0788L11.1229 13.6157L12.1794 10.6549H13.4396L11.9872 14.5371L13.2593 17.7437L15.9122 10.618H17.3886L13.8716 19.3408H12.7194L11.135 15.434L9.53864 19.3408H8.38646L4.86951 10.618H6.33373L8.99851 17.7437L10.2709 14.5371L8.80644 10.6549ZM23.6256 18.2596C22.8882 19.0215 22.0407 19.4022 21.0824 19.4022C20.5007 19.4022 19.9603 19.2813 19.4607 19.0399C18.9611 18.7983 18.527 18.4728 18.1585 18.063C17.7899 17.6537 17.5012 17.1787 17.2923 16.6379C17.0835 16.0973 16.979 15.5324 16.979 14.9425C16.979 14.3528 17.0835 13.7919 17.2923 13.2593C17.5012 12.727 17.7899 12.2601 18.1585 11.8588C18.527 11.4577 18.965 11.1401 19.473 10.9066C19.9806 10.6732 20.5335 10.5565 21.1316 10.5565C21.9668 10.5565 22.6673 10.7305 23.2324 11.0788C23.7976 11.4269 24.2233 11.8877 24.5101 12.461L23.4536 13.2225C23.2158 12.7476 22.8882 12.3914 22.4707 12.1538C22.053 11.9163 21.5941 11.7974 21.0947 11.7974C20.6852 11.7974 20.3123 11.8854 19.9767 12.0615C19.6407 12.2378 19.3542 12.471 19.1165 12.7618C18.879 13.0525 18.697 13.3906 18.57 13.7755C18.4429 14.1603 18.3796 14.5616 18.3796 14.9793C18.3796 15.4218 18.4511 15.8352 18.5946 16.2202C18.7377 16.6053 18.9343 16.9411 19.1843 17.2276C19.4339 17.5145 19.7308 17.7418 20.075 17.9095C20.419 18.0774 20.7915 18.1615 21.193 18.1615C21.6353 18.1615 22.0591 18.0591 22.4646 17.8544C22.87 17.6496 23.257 17.3259 23.6256 16.8836V15.9501H21.795V14.9302H24.7804V19.3407H23.6256V18.2596Z" fill="#C0C1C9"/>
</svg>
