<svg width="29" height="29" viewBox="0 0 29 29" fill="none" xmlns="http://www.w3.org/2000/svg">
<g clip-path="url(#clip0)">
<g clip-path="url(#clip1)">
<path fill-rule="evenodd" clip-rule="evenodd" d="M2.95673 14.3984C2.95673 20.7765 8.13893 25.9587 14.517 25.9587C20.8951 25.9587 26.0773 20.7765 26.0773 14.3984H2.95673ZM28.7182 14.3984C28.7182 22.2216 22.3402 28.5997 14.517 28.5997C6.69389 28.5997 0.315796 22.2216 0.315796 14.3984" fill="#EFB289"/>
<path fill-rule="evenodd" clip-rule="evenodd" d="M26.0773 14.3985C26.0773 8.0204 20.8951 2.8382 14.517 2.8382C8.13893 2.8382 2.95673 8.0204 2.95673 14.3985H26.0773ZM0.315796 14.3985C0.315796 6.57536 6.69389 0.197266 14.517 0.197266C22.3402 0.197266 28.7182 6.57536 28.7182 14.3985" fill="#E0E3EC"/>
</g>
<path d="M12.2676 18.6591V12.9104L9.89311 17.273H9.14328L6.75748 12.9104V18.6591H5.48505V10.5928H6.84836L9.51819 15.5234L12.188 10.5928H13.5513V18.6591H12.2676Z" fill="#E0E3EC"/>
<path d="M15.3704 18.6591V10.5928H16.6429V18.6591H15.3704Z" fill="#E0E3EC"/>
<path d="M18.9771 10.5928L21.2039 13.7625L23.4306 10.5928H24.8394L21.931 14.6827L24.7485 18.6591H23.3397L21.2039 15.603L19.068 18.6591H17.6479L20.4654 14.6827L17.557 10.5928H18.9771Z" fill="#E0E3EC"/>
</g>
<defs>
<clipPath id="clip0">
<rect width="28.3684" height="28.3684" fill="white" transform="translate(0.315796 0.197266)"/>
</clipPath>
<clipPath id="clip1">
<rect width="28.4025" height="28.4025" fill="white" transform="translate(0.315796 0.197266)"/>
</clipPath>
</defs>
</svg>
