<svg width="29" height="29" viewBox="0 0 29 29" fill="none" xmlns="http://www.w3.org/2000/svg">
<g clip-path="url(#clip0)">
<g clip-path="url(#clip1)">
<path fill-rule="evenodd" clip-rule="evenodd" d="M14.5169 2.85857C8.15373 2.85857 2.97711 8.03542 2.97711 14.3986C2.97711 20.7618 8.15373 25.9384 14.5169 25.9384C20.8801 25.9384 26.0569 20.7618 26.0569 14.3986C26.0569 8.03542 20.8801 2.85857 14.5169 2.85857ZM14.5169 28.5997C6.68633 28.5997 0.315796 22.2292 0.315796 14.3986C0.315796 6.56802 6.68633 0.197266 14.5169 0.197266C22.3475 0.197266 28.7182 6.56802 28.7182 14.3986C28.7182 22.2292 22.3475 28.5997 14.5169 28.5997ZM12.6489 11.8233C12.5533 11.7181 12.4145 11.6059 12.2333 11.4863C12.0517 11.367 11.8392 11.255 11.5956 11.1498C11.352 11.0447 11.0844 10.9586 10.7931 10.8918C10.5016 10.8251 10.2032 10.7915 9.89752 10.7915C9.21909 10.7915 8.71999 10.9156 8.40002 11.1639C8.07985 11.4126 7.91995 11.7565 7.91995 12.1956C7.91995 12.4444 7.97011 12.647 8.07042 12.8049C8.17073 12.9623 8.32592 13.1011 8.53617 13.2205C8.7462 13.34 9.00903 13.445 9.32429 13.5357C9.63956 13.6266 10.0072 13.7245 10.4277 13.8295C10.9436 13.9537 11.4093 14.0923 11.8249 14.2451C12.2405 14.398 12.5916 14.5841 12.8782 14.8039C13.1648 15.0238 13.3869 15.2936 13.5445 15.6136C13.7022 15.9338 13.781 16.3227 13.781 16.7815C13.781 17.2974 13.6829 17.7416 13.4872 18.114C13.2913 18.4868 13.0237 18.7902 12.6847 19.0241C12.3455 19.2581 11.9514 19.4303 11.5025 19.5398C11.0533 19.6495 10.571 19.7048 10.0551 19.7048C9.2813 19.7048 8.53371 19.5879 7.8125 19.3537C7.09108 19.1197 6.43904 18.7783 5.85642 18.3289L6.58725 16.9534C6.71131 17.0777 6.89043 17.2163 7.12462 17.369C7.35861 17.5219 7.63089 17.6626 7.94144 17.7916C8.25179 17.9207 8.58856 18.0307 8.95173 18.1213C9.31469 18.2122 9.69197 18.2575 10.0838 18.2575C10.7143 18.2575 11.2015 18.1478 11.5455 17.9277C11.8894 17.7082 12.0614 17.3833 12.0614 16.9534C12.0614 16.6955 11.9969 16.4805 11.8679 16.3086C11.7389 16.1364 11.5549 15.9862 11.3162 15.8572C11.0773 15.7282 10.786 15.6113 10.4421 15.5061C10.0981 15.4011 9.70632 15.2909 9.267 15.1765C8.76053 15.0428 8.31873 14.902 7.94144 14.7536C7.56395 14.6058 7.25116 14.4266 7.00284 14.2162C6.75432 14.0064 6.56575 13.7603 6.43678 13.4784C6.30781 13.1967 6.24335 12.855 6.24335 12.4538C6.24335 11.9572 6.33873 11.5152 6.52993 11.1281C6.72093 10.7413 6.98133 10.4167 7.31092 10.1538C7.64051 9.89116 8.0297 9.69301 8.47884 9.55892C8.92778 9.42544 9.41501 9.35849 9.94051 9.35849C10.6284 9.35849 11.2636 9.46842 11.8464 9.68788C12.429 9.90795 12.9402 10.1802 13.3797 10.5049L12.6489 11.8233ZM21.4045 11.8233C21.3089 11.7181 21.1701 11.6059 20.9889 11.4863C20.8073 11.367 20.5948 11.255 20.3512 11.1498C20.1076 11.0447 19.84 10.9586 19.5487 10.8918C19.2572 10.8251 18.9587 10.7915 18.6531 10.7915C17.9747 10.7915 17.4756 10.9156 17.1556 11.1639C16.8354 11.4126 16.6756 11.7565 16.6756 12.1956C16.6756 12.4444 16.7257 12.647 16.826 12.8049C16.9263 12.9623 17.0815 13.1011 17.2917 13.2205C17.5018 13.34 17.7646 13.445 18.0799 13.5357C18.3952 13.6266 18.7628 13.7245 19.1833 13.8295C19.6992 13.9537 20.1649 14.0923 20.5805 14.2451C20.9961 14.398 21.3472 14.5841 21.6338 14.8039C21.9204 15.0238 22.1425 15.2936 22.3001 15.6136C22.4577 15.9338 22.5366 16.3227 22.5366 16.7815C22.5366 17.2974 22.4385 17.7416 22.2428 18.114C22.0469 18.4868 21.7793 18.7902 21.4403 19.0241C21.1011 19.2581 20.707 19.4303 20.2581 19.5398C19.8089 19.6495 19.3266 19.7048 18.8107 19.7048C18.0369 19.7048 17.2893 19.5879 16.5681 19.3537C15.8467 19.1197 15.1946 18.7783 14.612 18.3289L15.3429 16.9534C15.4669 17.0777 15.646 17.2163 15.8802 17.369C16.1142 17.5219 16.3865 17.6626 16.697 17.7916C17.0074 17.9207 17.3441 18.0307 17.7073 18.1213C18.0703 18.2122 18.4476 18.2575 18.8394 18.2575C19.4699 18.2575 19.9571 18.1478 20.3011 17.9277C20.645 17.7082 20.8169 17.3833 20.8169 16.9534C20.8169 16.6955 20.7524 16.4805 20.6235 16.3086C20.4945 16.1364 20.3105 15.9862 20.0718 15.8572C19.8329 15.7282 19.5416 15.6113 19.1976 15.5061C18.8537 15.4011 18.4619 15.2909 18.0226 15.1765C17.5161 15.0428 17.0743 14.902 16.697 14.7536C16.3195 14.6058 16.0067 14.4266 15.7584 14.2162C15.5099 14.0064 15.3214 13.7603 15.1924 13.4784C15.0634 13.1967 14.9989 12.855 14.9989 12.4538C14.9989 11.9572 15.0943 11.5152 15.2855 11.1281C15.4765 10.7413 15.7369 10.4167 16.0665 10.1538C16.3961 9.89116 16.7853 9.69301 17.2344 9.55892C17.6834 9.42544 18.1706 9.35849 18.6961 9.35849C19.3839 9.35849 20.0192 9.46842 20.602 9.68788C21.1846 9.90795 21.6958 10.1802 22.1353 10.5049L21.4045 11.8233Z" fill="#C6CFE0"/>
</g>
</g>
<defs>
<clipPath id="clip0">
<rect width="28.3684" height="28.3684" fill="white" transform="translate(0.315796 0.197266)"/>
</clipPath>
<clipPath id="clip1">
<rect width="28.4025" height="28.4025" fill="white" transform="translate(0.315796 0.197266)"/>
</clipPath>
</defs>
</svg>
