<svg width="30" height="29" viewBox="0 0 30 29" fill="none" xmlns="http://www.w3.org/2000/svg">
<g clip-path="url(#clip0)">
<g clip-path="url(#clip1)">
<path fill-rule="evenodd" clip-rule="evenodd" d="M15.017 3.24933C8.63893 3.24933 3.45673 8.43153 3.45673 14.8096C3.45673 21.1877 8.63893 26.3699 15.017 26.3699C21.3951 26.3699 26.5773 21.1877 26.5773 14.8096C26.5773 8.43153 21.3951 3.24933 15.017 3.24933ZM15.017 29.0109C7.19389 29.0109 0.815796 22.6328 0.815796 14.8096C0.815796 6.98649 7.19389 0.608398 15.017 0.608398C22.8402 0.608398 29.2182 6.98649 29.2182 14.8096C29.2182 22.6328 22.8402 29.0109 15.017 29.0109Z" fill="#D6C372"/>
<path d="M7.24375 9.87598L10.1837 15.2077L13.1236 9.87598H14.9672L11.0307 16.7025V20.4895H9.33657V16.6527L5.40009 9.87598H7.24375Z" fill="#D6C372"/>
<path d="M23.0395 19.194C22.1426 20.1407 21.0962 20.5892 19.9501 20.5892C19.2525 20.5892 18.6048 20.4397 17.957 20.1407C17.3092 19.8418 16.8109 19.4431 16.3625 18.9449C15.914 18.4466 15.5652 17.8486 15.3161 17.2008C15.0669 16.5531 14.9174 15.8555 14.9174 15.1579C14.9174 14.4603 15.0669 13.7627 15.3161 13.1149C15.5652 12.4671 15.914 11.919 16.3625 11.4207C16.8109 10.9224 17.359 10.5238 17.957 10.2746C18.5549 9.97566 19.2525 9.82617 19.9501 9.82617C20.9467 9.82617 21.8436 10.0255 22.4914 10.4739C23.189 10.9224 23.6873 11.4705 24.0361 12.1681L22.7904 13.065C22.4914 12.4671 22.0928 12.0685 21.5945 11.7695C21.0962 11.4705 20.5481 11.321 19.9003 11.321C19.402 11.321 18.9536 11.4207 18.5549 11.62C18.1563 11.8193 17.8075 12.1183 17.5085 12.4671C17.2095 12.8159 17.0102 13.2145 16.8607 13.7128C16.7113 14.1613 16.6116 14.6596 16.6116 15.1579C16.6116 15.706 16.7113 16.2043 16.8607 16.6527C17.0102 17.1012 17.2594 17.5496 17.5583 17.8984C17.8573 18.2473 18.2061 18.5462 18.6546 18.7455C19.0532 18.9449 19.5515 19.0445 20 19.0445C20.5481 19.0445 21.0464 18.895 21.5447 18.6459C22.0429 18.3967 22.4914 17.9981 22.9399 17.45V16.3039H20.6976V15.0582H24.3351V20.4397H22.9399V19.194H23.0395Z" fill="#D6C372"/>
</g>
</g>
<defs>
<clipPath id="clip0">
<rect width="28.3684" height="28.3684" fill="white" transform="translate(0.815796 0.608398)"/>
</clipPath>
<clipPath id="clip1">
<rect width="28.4025" height="28.4025" fill="white" transform="translate(0.815796 0.608398)"/>
</clipPath>
</defs>
</svg>
