<svg width="30" height="29" viewBox="0 0 30 29" fill="none" xmlns="http://www.w3.org/2000/svg">
<g clip-path="url(#clip0)">
<g clip-path="url(#clip1)">
<path fill-rule="evenodd" clip-rule="evenodd" d="M15.0169 3.2697C8.65374 3.2697 3.4771 8.44635 3.4771 14.8095C3.4771 21.1727 8.65374 26.3495 15.0169 26.3495C21.3801 26.3495 26.5569 21.1727 26.5569 14.8095C26.5569 8.44635 21.3801 3.2697 15.0169 3.2697ZM15.0169 29.0109C7.18634 29.0109 0.815796 22.6401 0.815796 14.8095C0.815796 6.97894 7.18634 0.608398 15.0169 0.608398C22.8475 0.608398 29.2182 6.97894 29.2182 14.8095C29.2182 22.6401 22.8475 29.0109 15.0169 29.0109ZM7.87806 15.0575H10.6868C10.916 15.0575 11.1236 15.0073 11.3101 14.907C11.4964 14.8065 11.6561 14.6683 11.79 14.4912C11.9239 14.3147 12.0287 14.1117 12.1052 13.8824C12.1816 13.6531 12.2201 13.4095 12.2201 13.1513C12.2201 12.8936 12.1744 12.6498 12.0839 12.4207C11.993 12.1914 11.8737 11.9908 11.7257 11.8189C11.5773 11.6469 11.4053 11.5108 11.2096 11.4104C11.0137 11.3099 10.8106 11.26 10.6008 11.26H7.87806V15.0575ZM6.27288 20.0157V9.8413H10.7011C11.1594 9.8413 11.5824 9.9367 11.9691 10.1279C12.3562 10.3191 12.6878 10.5699 12.9652 10.8802C13.242 11.1906 13.4596 11.5443 13.6171 11.9405C13.7749 12.3372 13.8535 12.7409 13.8535 13.1513C13.8535 13.4955 13.8056 13.8249 13.7102 14.1403C13.6146 14.4556 13.4809 14.7469 13.309 15.0145C13.137 15.282 12.9268 15.5138 12.6784 15.7095C12.4299 15.9054 12.1576 16.0511 11.8618 16.1463L14.2547 20.0157H12.435L10.228 16.4761H7.87806V20.0157H6.27288ZM22.3513 18.7545C21.4917 19.643 20.5029 20.0872 19.3852 20.0872C18.7065 20.0872 18.076 19.9464 17.4936 19.6645C16.9106 19.3828 16.4043 19.003 15.9746 18.5252C15.5445 18.0476 15.2077 17.4935 14.9641 16.8629C14.7207 16.2324 14.5987 15.5732 14.5987 14.8856C14.5987 14.1975 14.7207 13.5433 14.9641 12.9222C15.2077 12.3015 15.5445 11.7567 15.9746 11.2885C16.4043 10.8206 16.9153 10.4504 17.5079 10.178C18.1 9.90568 18.745 9.76955 19.4423 9.76955C20.4169 9.76955 21.2335 9.97283 21.8929 10.3786C22.5519 10.7847 23.0485 11.3221 23.3831 11.9907L22.1509 12.8792C21.8735 12.3252 21.4917 11.9096 21.0043 11.6325C20.517 11.3555 19.9821 11.2169 19.3993 11.2169C18.9215 11.2169 18.4869 11.3199 18.0952 11.5252C17.7034 11.7305 17.3691 12.003 17.0923 12.3418C16.815 12.681 16.6025 13.0751 16.4545 13.524C16.3064 13.9734 16.2323 14.4412 16.2323 14.9286C16.2323 15.4443 16.3161 15.9268 16.4831 16.3757C16.6502 16.8249 16.8794 17.2165 17.171 17.5508C17.4623 17.8853 17.8089 18.1504 18.2101 18.3461C18.6111 18.542 19.0459 18.6399 19.5141 18.6399C20.0298 18.6399 20.5242 18.5205 20.9973 18.2816C21.47 18.0429 21.9214 17.6654 22.3513 17.1495V16.0605H20.2161V14.8711H23.6983V20.0156H22.3513V18.7545Z" fill="#EFB289"/>
</g>
</g>
<defs>
<clipPath id="clip0">
<rect width="28.3684" height="28.3684" fill="white" transform="translate(0.815796 0.608398)"/>
</clipPath>
<clipPath id="clip1">
<rect width="28.4025" height="28.4025" fill="white" transform="translate(0.815796 0.608398)"/>
</clipPath>
</defs>
</svg>
