<svg width="61" height="60" viewBox="0 0 61 60" fill="none" xmlns="http://www.w3.org/2000/svg">
<rect x="0.5" width="60" height="60" rx="30" fill="black"/>
<path fill-rule="evenodd" clip-rule="evenodd" d="M24.4535 15.4215C26.0175 15.3495 26.5162 15.3335 30.5002 15.3335C34.4842 15.3335 34.9828 15.3508 36.5455 15.4215C38.1082 15.4922 39.1748 15.7415 40.1082 16.1028C41.0855 16.4722 41.9722 17.0495 42.7055 17.7962C43.4522 18.5282 44.0282 19.4135 44.3962 20.3922C44.7588 21.3255 45.0068 22.3922 45.0788 23.9522C45.1508 25.5188 45.1668 26.0175 45.1668 30.0002C45.1668 33.9842 45.1495 34.4828 45.0788 36.0468C45.0082 37.6068 44.7588 38.6735 44.3962 39.6068C44.0282 40.5856 43.4512 41.4724 42.7055 42.2055C41.9722 42.9522 41.0855 43.5282 40.1082 43.8962C39.1748 44.2588 38.1082 44.5068 36.5482 44.5788C34.9828 44.6508 34.4842 44.6668 30.5002 44.6668C26.5162 44.6668 26.0175 44.6495 24.4535 44.5788C22.8935 44.5082 21.8268 44.2588 20.8935 43.8962C19.9147 43.5281 19.0279 42.9512 18.2948 42.2055C17.5487 41.4731 16.9712 40.5867 16.6028 39.6082C16.2415 38.6748 15.9935 37.6082 15.9215 36.0482C15.8495 34.4815 15.8335 33.9828 15.8335 30.0002C15.8335 26.0162 15.8508 25.5175 15.9215 23.9548C15.9922 22.3922 16.2415 21.3255 16.6028 20.3922C16.9718 19.4136 17.5497 18.5272 18.2962 17.7948C19.0282 17.0488 19.9141 16.4714 20.8922 16.1028C21.8255 15.7415 22.8922 15.4935 24.4522 15.4215H24.4535ZM36.4268 18.0615C34.8802 17.9908 34.4162 17.9762 30.5002 17.9762C26.5842 17.9762 26.1202 17.9908 24.5735 18.0615C23.1428 18.1268 22.3668 18.3655 21.8495 18.5668C21.1655 18.8335 20.6762 19.1495 20.1628 19.6628C19.6762 20.1362 19.3017 20.7125 19.0668 21.3495C18.8655 21.8668 18.6268 22.6428 18.5615 24.0735C18.4908 25.6202 18.4762 26.0842 18.4762 30.0002C18.4762 33.9162 18.4908 34.3802 18.5615 35.9268C18.6268 37.3575 18.8655 38.1335 19.0668 38.6508C19.3015 39.2868 19.6762 39.8642 20.1628 40.3375C20.6362 40.8242 21.2135 41.1988 21.8495 41.4335C22.3668 41.6348 23.1428 41.8735 24.5735 41.9388C26.1202 42.0095 26.5828 42.0242 30.5002 42.0242C34.4175 42.0242 34.8802 42.0095 36.4268 41.9388C37.8575 41.8735 38.6335 41.6348 39.1508 41.4335C39.8348 41.1668 40.3242 40.8508 40.8375 40.3375C41.3242 39.8642 41.6988 39.2868 41.9335 38.6508C42.1348 38.1335 42.3735 37.3575 42.4388 35.9268C42.5095 34.3802 42.5242 33.9162 42.5242 30.0002C42.5242 26.0842 42.5095 25.6202 42.4388 24.0735C42.3735 22.6428 42.1348 21.8668 41.9335 21.3495C41.6668 20.6655 41.3508 20.1762 40.8375 19.6628C40.3641 19.1763 39.7878 18.8018 39.1508 18.5668C38.6335 18.3655 37.8575 18.1268 36.4268 18.0615ZM28.6268 34.5215C29.673 34.957 30.838 35.0158 31.9227 34.6878C33.0075 34.3598 33.9447 33.6654 34.5743 32.7232C35.2039 31.7809 35.4869 30.6493 35.3749 29.5216C35.2629 28.3939 34.7628 27.3401 33.9602 26.5402C33.4485 26.0288 32.8298 25.6372 32.1486 25.3937C31.4674 25.1501 30.7407 25.0606 30.0208 25.1317C29.3009 25.2027 28.6057 25.4324 27.9852 25.8043C27.3648 26.1763 26.8345 26.6812 26.4326 27.2826C26.0306 27.8841 25.7671 28.5672 25.6609 29.2828C25.5546 29.9983 25.6084 30.7286 25.8182 31.4209C26.0281 32.1131 26.3888 32.7503 26.8745 33.2865C27.3601 33.8226 27.9586 34.2444 28.6268 34.5215ZM25.1695 24.6695C25.8695 23.9695 26.7006 23.4142 27.6152 23.0353C28.5299 22.6565 29.5102 22.4615 30.5002 22.4615C31.4902 22.4615 32.4705 22.6565 33.3851 23.0353C34.2997 23.4142 35.1308 23.9695 35.8308 24.6695C36.5309 25.3695 37.0862 26.2006 37.465 27.1152C37.8439 28.0299 38.0389 29.0102 38.0389 30.0002C38.0389 30.9902 37.8439 31.9705 37.465 32.8851C37.0862 33.7997 36.5309 34.6308 35.8308 35.3308C34.417 36.7446 32.4996 37.5389 30.5002 37.5389C28.5008 37.5389 26.5833 36.7446 25.1695 35.3308C23.7557 33.917 22.9615 31.9996 22.9615 30.0002C22.9615 28.0008 23.7557 26.0833 25.1695 24.6695ZM39.7108 23.5842C39.8843 23.4205 40.0232 23.2237 40.1192 23.0055C40.2153 22.7872 40.2666 22.5519 40.2701 22.3134C40.2735 22.075 40.2291 21.8382 40.1395 21.6172C40.0498 21.3963 39.9167 21.1955 39.7481 21.0269C39.5795 20.8583 39.3787 20.7252 39.1578 20.6355C38.9368 20.5459 38.7 20.5015 38.4616 20.5049C38.2231 20.5084 37.9878 20.5597 37.7695 20.6558C37.5513 20.7518 37.3545 20.8907 37.1908 21.0642C36.8726 21.4015 36.6983 21.8497 36.7051 22.3134C36.7119 22.7771 36.8991 23.22 37.227 23.548C37.555 23.8759 37.9978 24.0631 38.4616 24.0699C38.9253 24.0767 39.3735 23.9024 39.7108 23.5842Z" fill="white"/>
</svg>
