<svg width="180" height="53" viewBox="0 0 180 53" fill="none" xmlns="http://www.w3.org/2000/svg">
<path d="M173.343 52.5H6.90506C3.2451 52.5 0.247559 49.5734 0.247559 46V7C0.247559 3.42663 3.2451 0.500003 6.90506 0.500003H173.343C177.003 0.500003 180 3.42663 180 7V46C180 49.5734 177.003 52.5 173.343 52.5Z" fill="black"/>
<path d="M173.343 1.54162C176.425 1.54162 178.933 3.9905 178.933 7V46C178.933 49.0095 176.425 51.4584 173.343 51.4584H6.90506C3.82264 51.4584 1.31442 49.0095 1.31442 46V7C1.31442 3.9905 3.82264 1.54162 6.90506 1.54162H173.343ZM173.343 0.500003H6.90506C3.2451 0.500003 0.247559 3.42663 0.247559 7V46C0.247559 49.5734 3.2451 52.5 6.90506 52.5H173.343C177.003 52.5 180 49.5734 180 46V7C180 3.42663 177.003 0.500003 173.343 0.500003Z" fill="#A6A6A6"/>
<path d="M63.3839 13.8168C63.3839 14.9023 63.051 15.7717 62.3953 16.4201C61.6413 17.1887 60.6593 17.5754 59.456 17.5754C58.3059 17.5754 57.3239 17.1822 56.5183 16.4071C55.7111 15.6206 55.3083 14.6553 55.3083 13.4999C55.3083 12.3446 55.7111 11.3793 56.5183 10.5993C57.3239 9.81769 58.3059 9.42444 59.456 9.42444C60.0285 9.42444 60.5744 9.53981 61.0954 9.75431C61.6147 9.97044 62.0374 10.2629 62.3437 10.6237L61.648 11.3094C61.1137 10.6936 60.3864 10.3897 59.456 10.3897C58.6171 10.3897 57.8898 10.6757 57.2723 11.2526C56.6615 11.8311 56.3552 12.5802 56.3552 13.4999C56.3552 14.4197 56.6615 15.1753 57.2723 15.7538C57.8898 16.3242 58.6171 16.6167 59.456 16.6167C60.3464 16.6167 61.0954 16.3242 61.6862 15.7473C62.0757 15.3654 62.2971 14.8389 62.3553 14.1662H59.456V13.2269H63.324C63.3706 13.4301 63.3839 13.6267 63.3839 13.8168Z" fill="white" stroke="white" stroke-width="0.16" stroke-miterlimit="10"/>
<path d="M69.5206 10.5604H65.8872V13.0304H69.1627V13.9696H65.8872V16.4396H69.5206V17.3968H64.8586V9.60327H69.5206V10.5604Z" fill="white" stroke="white" stroke-width="0.16" stroke-miterlimit="10"/>
<path d="M73.8512 17.3968H72.8226V10.5604H70.594V9.60327H76.0814V10.5604H73.8512V17.3968Z" fill="white" stroke="white" stroke-width="0.16" stroke-miterlimit="10"/>
<path d="M80.0527 17.3968V9.60327H81.0797V17.3968H80.0527Z" fill="white" stroke="white" stroke-width="0.16" stroke-miterlimit="10"/>
<path d="M85.6317 17.3968H84.6114V10.5604H82.3745V9.60327H87.8686V10.5604H85.6317V17.3968Z" fill="white" stroke="white" stroke-width="0.16" stroke-miterlimit="10"/>
<path d="M98.2577 16.3941C97.4705 17.1822 96.4952 17.5754 95.3318 17.5754C94.1617 17.5754 93.1864 17.1822 92.3991 16.3941C91.6135 15.6076 91.2224 14.6423 91.2224 13.4999C91.2224 12.3576 91.6135 11.3923 92.3991 10.6058C93.1864 9.81769 94.1617 9.42444 95.3318 9.42444C96.4885 9.42444 97.4638 9.81769 98.2511 10.6123C99.0433 11.4053 99.4344 12.3641 99.4344 13.4999C99.4344 14.6423 99.0433 15.6076 98.2577 16.3941ZM93.1597 15.7408C93.7523 16.3242 94.4729 16.6167 95.3318 16.6167C96.1839 16.6167 96.9113 16.3242 97.4971 15.7408C98.088 15.1574 98.3875 14.4083 98.3875 13.4999C98.3875 12.5916 98.088 11.8424 97.4971 11.2591C96.9113 10.6757 96.1839 10.3832 95.3318 10.3832C94.4729 10.3832 93.7523 10.6757 93.1597 11.2591C92.5689 11.8424 92.2693 12.5916 92.2693 13.4999C92.2693 14.4083 92.5689 15.1574 93.1597 15.7408Z" fill="white" stroke="white" stroke-width="0.16" stroke-miterlimit="10"/>
<path d="M100.877 17.3968V9.60327H102.126L106.007 15.6645H106.052L106.007 14.1663V9.60327H107.034V17.3968H105.962L101.898 11.0365H101.853L101.898 12.5413V17.3968H100.877Z" fill="white" stroke="white" stroke-width="0.16" stroke-miterlimit="10"/>
<path d="M90.9693 28.7783C87.842 28.7783 85.2872 31.102 85.2872 34.3082C85.2872 37.4883 87.842 39.8364 90.9693 39.8364C94.1033 39.8364 96.6582 37.4883 96.6582 34.3082C96.6582 31.102 94.1033 28.7783 90.9693 28.7783ZM90.9693 37.6589C89.2534 37.6589 87.7771 36.276 87.7771 34.3082C87.7771 32.3143 89.2534 30.9558 90.9693 30.9558C92.6853 30.9558 94.1683 32.3143 94.1683 34.3082C94.1683 36.276 92.6853 37.6589 90.9693 37.6589ZM78.5714 28.7783C75.4374 28.7783 72.8892 31.102 72.8892 34.3082C72.8892 37.4883 75.4374 39.8364 78.5714 39.8364C81.7037 39.8364 84.2536 37.4883 84.2536 34.3082C84.2536 31.102 81.7037 28.7783 78.5714 28.7783ZM78.5714 37.6589C76.8538 37.6589 75.3725 36.276 75.3725 34.3082C75.3725 32.3143 76.8538 30.9558 78.5714 30.9558C80.2874 30.9558 81.7637 32.3143 81.7637 34.3082C81.7637 36.276 80.2874 37.6589 78.5714 37.6589ZM63.8184 30.4732V32.8229H69.5655C69.3974 34.1359 68.948 35.1012 68.2589 35.7739C67.4201 36.5864 66.1135 37.4883 63.8184 37.4883C60.2816 37.4883 57.5121 34.7014 57.5121 31.2483C57.5121 27.7952 60.2816 25.0083 63.8184 25.0083C65.7307 25.0083 67.1222 25.7379 68.1491 26.6837L69.8451 25.0278C68.4087 23.6888 66.498 22.6602 63.8184 22.6602C58.9684 22.6602 54.8923 26.513 54.8923 31.2483C54.8923 35.9835 58.9684 39.8364 63.8184 39.8364C66.4398 39.8364 68.4087 38.9979 69.9566 37.4249C71.5427 35.8763 72.0371 33.6988 72.0371 31.9405C72.0371 31.3945 71.9905 30.8924 71.9072 30.4732H63.8184ZM124.145 32.2948C123.678 31.0582 122.235 28.7783 119.295 28.7783C116.383 28.7783 113.958 31.0192 113.958 34.3082C113.958 37.4054 116.358 39.8364 119.575 39.8364C122.176 39.8364 123.678 38.2878 124.295 37.3859L122.364 36.1298C121.72 37.0495 120.843 37.6589 119.575 37.6589C118.315 37.6589 117.411 37.095 116.832 35.9835L124.407 32.9237L124.145 32.2948ZM116.423 34.1359C116.358 32.0039 118.119 30.9119 119.38 30.9119C120.369 30.9119 121.208 31.3945 121.487 32.0852L116.423 34.1359ZM110.266 39.5H112.756V23.25H110.266V39.5ZM106.188 30.01H106.105C105.546 29.3633 104.479 28.7783 103.128 28.7783C100.292 28.7783 97.6984 31.2093 97.6984 34.326C97.6984 37.4249 100.292 39.8364 103.128 39.8364C104.479 39.8364 105.546 39.2465 106.105 38.5803H106.188V39.3733C106.188 41.4874 105.032 42.6233 103.166 42.6233C101.645 42.6233 100.701 41.5508 100.311 40.6489L98.1461 41.5313C98.7703 42.997 100.423 44.8008 103.166 44.8008C106.085 44.8008 108.548 43.1238 108.548 39.0434V29.1147H106.188V30.01ZM103.341 37.6589C101.625 37.6589 100.188 36.2565 100.188 34.326C100.188 32.3777 101.625 30.9558 103.341 30.9558C105.032 30.9558 106.365 32.3777 106.365 34.326C106.365 36.2565 105.032 37.6589 103.341 37.6589ZM135.803 23.25H129.847V39.5H132.331V33.3429H135.803C138.56 33.3429 141.265 31.3945 141.265 28.2957C141.265 25.1984 138.554 23.25 135.803 23.25ZM135.868 31.0825H132.331V25.5104H135.868C137.722 25.5104 138.78 27.0135 138.78 28.2957C138.78 29.5534 137.722 31.0825 135.868 31.0825ZM151.218 28.7474C149.424 28.7474 147.558 29.5209 146.791 31.2353L148.994 32.1372C149.469 31.2353 150.341 30.9428 151.263 30.9428C152.551 30.9428 153.858 31.6984 153.878 33.0325V33.2032C153.428 32.9497 152.466 32.5743 151.283 32.5743C148.91 32.5743 146.491 33.8499 146.491 36.2305C146.491 38.408 148.435 39.8104 150.621 39.8104C152.292 39.8104 153.214 39.0743 153.793 38.2179H153.878V39.474H156.276V33.2405C156.276 30.3594 154.072 28.7474 151.218 28.7474ZM150.918 37.6524C150.106 37.6524 148.974 37.2592 148.974 36.276C148.974 35.0183 150.386 34.5357 151.608 34.5357C152.701 34.5357 153.214 34.7713 153.878 35.0817C153.683 36.5864 152.356 37.6524 150.918 37.6524ZM165.014 29.1033L162.16 36.1477H162.075L159.124 29.1033H156.446L160.88 38.9475L158.35 44.4254H160.945L167.777 29.1033H165.014ZM142.63 39.5H145.12V23.25H142.63V39.5Z" fill="white"/>
<path d="M14.1417 10.3003C13.7505 10.7001 13.5242 11.3224 13.5242 12.1284V40.8779C13.5242 41.6839 13.7505 42.3063 14.1417 42.7061L14.2382 42.7938L30.7388 26.6901V26.3098L14.2382 10.2061L14.1417 10.3003Z" fill="url(#paint0_linear)"/>
<path d="M36.2331 32.0607L30.739 26.69V26.3098L36.2398 20.9392L36.3629 21.009L42.8773 24.6279C44.7364 25.6549 44.7364 27.3449 42.8773 28.3784L36.3629 31.9908L36.2331 32.0607Z" fill="url(#paint1_linear)"/>
<path d="M36.3629 31.9908L30.739 26.5L14.1418 42.7061C14.7593 43.3398 15.7663 43.4162 16.9114 42.7825L36.3629 31.9908Z" fill="url(#paint2_linear)"/>
<path d="M36.3629 21.0091L16.9114 10.2175C15.7663 9.59025 14.7593 9.66663 14.1418 10.3004L30.739 26.5L36.3629 21.0091Z" fill="url(#paint3_linear)"/>
<defs>
<linearGradient id="paint0_linear" x1="29.2737" y1="41.1773" x2="7.46288" y2="18.838" gradientUnits="userSpaceOnUse">
<stop stop-color="#00A0FF"/>
<stop offset="0.0066" stop-color="#00A1FF"/>
<stop offset="0.2601" stop-color="#00BEFF"/>
<stop offset="0.5122" stop-color="#00D2FF"/>
<stop offset="0.7604" stop-color="#00DFFF"/>
<stop offset="1" stop-color="#00E3FF"/>
</linearGradient>
<linearGradient id="paint1_linear" x1="45.2982" y1="26.4981" x2="13.08" y2="26.4981" gradientUnits="userSpaceOnUse">
<stop stop-color="#FFE000"/>
<stop offset="0.4087" stop-color="#FFBD00"/>
<stop offset="0.7754" stop-color="#FFA500"/>
<stop offset="1" stop-color="#FF9C00"/>
</linearGradient>
<linearGradient id="paint2_linear" x1="33.3048" y1="23.515" x2="3.72749" y2="-6.77896" gradientUnits="userSpaceOnUse">
<stop stop-color="#FF3A44"/>
<stop offset="1" stop-color="#C31162"/>
</linearGradient>
<linearGradient id="paint3_linear" x1="9.964" y1="52.2709" x2="23.1716" y2="38.7434" gradientUnits="userSpaceOnUse">
<stop stop-color="#32A071"/>
<stop offset="0.0685" stop-color="#2DA771"/>
<stop offset="0.4762" stop-color="#15CF74"/>
<stop offset="0.8009" stop-color="#06E775"/>
<stop offset="1" stop-color="#00F076"/>
</linearGradient>
</defs>
</svg>
