<svg width="21" height="21" viewBox="0 0 21 21" fill="none" xmlns="http://www.w3.org/2000/svg">
<path fill-rule="evenodd" clip-rule="evenodd" d="M10.4999 0.5C16.0139 0.5 20.5 4.98594 20.5 10.5001C20.5 16.0141 16.0139 20.5 10.4999 20.5C4.98594 20.5 0.5 16.0141 0.5 10.5001C0.5 4.98594 4.98594 0.5 10.4999 0.5ZM10.4999 1.29538C5.42459 1.29538 1.29538 5.42459 1.29538 10.5001C1.29538 15.5754 5.42459 19.7046 10.4999 19.7046C15.5754 19.7046 19.7046 15.5754 19.7046 10.5001C19.7046 5.42459 15.5754 1.29538 10.4999 1.29538ZM12.2408 15.6431L12.7823 16.7624C12.3359 16.9252 11.8673 17.0405 11.3825 17.1043L11.0159 17.1423L12.2408 15.6431ZM8.7245 15.6432L9.94679 17.1389C9.45668 17.0981 8.9812 17.005 8.52657 16.8639L8.1896 16.7491L8.7245 15.6432ZM10.5128 14.6683L11.8564 15.2673L10.4832 16.9479L9.13998 15.3042L10.5128 14.6683ZM12.646 15.4725L14.8281 15.5638C14.4197 15.9133 13.969 16.214 13.4844 16.4575L13.1897 16.5966L12.646 15.4725ZM8.31923 15.4724L7.78314 16.5811C7.29581 16.3623 6.83941 16.0866 6.42233 15.7625L6.17688 15.5623L8.31923 15.4724ZM14.9542 12.6109L15.0556 15.0308L12.6383 14.9296L13.3382 13.3595L14.9542 12.6109ZM6.15121 12.7239L7.66919 13.4006L8.37648 14.9275L6.05497 15.0248L6.15121 12.7239ZM5.61124 12.71L5.51898 14.9162C5.0851 14.4273 4.72261 13.8743 4.44641 13.2734L5.61124 12.71ZM15.5015 12.7101L16.5794 13.2314C16.3652 13.7062 16.0974 14.1515 15.7831 14.5595L15.589 14.7997L15.5015 12.7101ZM8.35166 13.5439L10.0122 14.2842L8.92732 14.7866L8.35166 13.5439ZM12.6578 13.5127L12.1 14.7638L11.008 14.2768L12.6578 13.5127ZM10.4588 7.19966L12.767 8.22868L13.829 10.5214L12.8002 12.8293L10.5073 13.8916L8.19931 12.8628L7.13728 10.5699L8.1661 8.26188L10.4588 7.19966ZM3.86143 11.0145L5.44046 12.3048L4.27582 12.8681C4.05332 12.2849 3.91114 11.6625 3.86143 11.0145ZM17.1384 11.1067C17.095 11.586 17.001 12.0507 16.8613 12.4954L16.7481 12.8252L15.6721 12.3048L17.1384 11.1067ZM6.7518 11.0705L7.51616 12.7203L6.26503 12.1625L6.7518 11.0705ZM14.2216 11.0164L14.7243 12.1013L13.4813 12.6772L14.2216 11.0164ZM15.229 9.11789L16.9764 10.5456L15.2667 11.9425L14.6058 10.5158L15.229 9.11789ZM5.73898 9.234L6.36037 10.5754L5.77557 11.887L4.13391 10.5456L5.73898 9.234ZM4.245 8.21022L5.43131 8.78409L5.43548 8.79264L3.85387 10.0851C3.89424 9.43053 4.02826 8.80079 4.245 8.21022ZM7.48498 8.41418L6.74468 10.0747L6.25433 9.01628L6.26188 9.01012L6.24439 8.98884L7.48498 8.41418ZM13.4502 8.37105L14.7012 8.92881L14.2144 10.0207L13.4502 8.37105ZM16.777 8.25429C16.9348 8.69413 17.047 9.15548 17.109 9.63234L17.146 9.99279L15.6722 8.78858L16.777 8.25429ZM15.0594 5.96918L14.9563 8.43028L13.2972 7.69058L12.5483 6.07437L15.0594 5.96918ZM6.05097 5.97521L8.36771 6.07225L7.62801 7.7316L6.15317 8.41483L6.05097 5.97521ZM15.5927 6.20474C15.9388 6.61419 16.2365 7.06562 16.4769 7.5504L16.6141 7.8452L15.5016 8.38348L15.5927 6.20474ZM5.51518 6.08821L5.61122 8.38328L4.41179 7.80325C4.69117 7.1745 5.0648 6.59686 5.51518 6.08821ZM8.86619 6.32746L9.95825 6.81443L8.30843 7.57859L8.86619 6.32746ZM12.039 6.30462L12.6147 7.54759L10.9539 6.8071L12.039 6.30462ZM10.4828 3.89889L11.9129 5.64932L10.4521 6.32599L9.02085 5.6881L10.4828 3.89889ZM13.1897 4.40374C13.6875 4.62379 14.1531 4.90309 14.5781 5.23265L14.8282 5.43634L12.6461 5.52761L13.1897 4.40374ZM7.78316 4.41901L8.31925 5.52777L6.1767 5.43809C6.6581 5.02608 7.19836 4.68168 7.78316 4.41901ZM11.0159 3.85775C11.5082 3.89545 11.9862 3.98571 12.4434 4.12456L12.7822 4.23774L12.2408 5.35704L11.0159 3.85775ZM9.94677 3.86121L8.72467 5.35692L8.18958 4.25095C8.74436 4.04494 9.33413 3.91212 9.94677 3.86121Z" fill="#25369A"/>
</svg>
