<svg width="19" height="19" viewBox="0 0 19 19" fill="none" xmlns="http://www.w3.org/2000/svg">
<path fill-rule="evenodd" clip-rule="evenodd" d="M9.38547 0.5C14.2849 0.5 18.2711 4.4875 18.2711 9.38898C18.2711 14.2903 14.2849 18.2778 9.38547 18.2778C4.486 18.2778 0.5 14.2903 0.5 9.38898C0.5 4.4875 4.486 0.5 9.38547 0.5ZM9.38547 1.207C4.87577 1.207 1.20674 4.87741 1.20674 9.38898C1.20674 13.9004 4.87577 17.5708 9.38547 17.5708C13.8953 17.5708 17.5644 13.9004 17.5644 9.38898C17.5644 4.87741 13.8953 1.207 9.38547 1.207ZM10.9324 13.9605L11.4135 14.9554C11.0169 15.1002 10.6005 15.2027 10.1697 15.2594L9.844 15.2932L10.9324 13.9605ZM7.80792 13.9606L8.894 15.2901C8.45851 15.2539 8.03602 15.1711 7.63206 15.0457L7.33264 14.9437L7.80792 13.9606ZM9.39694 13.0941L10.5908 13.6265L9.37061 15.1204L8.1771 13.6593L9.39694 13.0941ZM11.2924 13.8089L13.2313 13.89C12.8684 14.2007 12.4679 14.468 12.0374 14.6844L11.7755 14.8081L11.2924 13.8089ZM7.44782 13.8088L6.97148 14.7944C6.53846 14.5998 6.13292 14.3548 5.76232 14.0667L5.54422 13.8887L7.44782 13.8088ZM13.3434 11.2652L13.4335 13.4163L11.2855 13.3263L11.9074 11.9307L13.3434 11.2652ZM5.52141 11.3657L6.87022 11.9672L7.49869 13.3245L5.4359 13.4109L5.52141 11.3657ZM5.04162 11.3534L4.95964 13.3144C4.57412 12.8798 4.25202 12.3882 4.00661 11.8541L5.04162 11.3534ZM13.8297 11.3534L14.7875 11.8168C14.5971 12.2388 14.3591 12.6347 14.0799 12.9973L13.9074 13.2109L13.8297 11.3534ZM7.47664 12.0945L8.95213 12.7526L7.98814 13.1992L7.47664 12.0945ZM11.3029 12.0668L10.8073 13.1789L9.83692 12.7461L11.3029 12.0668ZM9.34893 6.45525L11.3999 7.36994L12.3436 9.40787L11.4294 11.4594L9.39204 12.4036L7.34126 11.4891L6.39759 9.451L7.31176 7.39945L9.34893 6.45525ZM3.48682 9.8462L4.88987 10.9931L3.85503 11.4939C3.65732 10.9755 3.53099 10.4222 3.48682 9.8462ZM15.2842 9.92821C15.2456 10.3542 15.1621 10.7673 15.038 11.1626L14.9373 11.4557L13.9813 10.9931L15.2842 9.92821ZM6.05507 9.89599L6.73425 11.3625L5.62255 10.8667L6.05507 9.89599ZM12.6924 9.84793L13.1391 10.8123L12.0346 11.3242L12.6924 9.84793ZM13.5875 8.16035L15.1402 9.42942L13.6211 10.6711L13.0338 9.40291L13.5875 8.16035ZM5.15513 8.26355L5.70727 9.45591L5.18764 10.6218L3.72893 9.4294L5.15513 8.26355ZM3.82764 7.35353L4.88174 7.86364L4.88545 7.87124L3.4801 9.02012C3.51597 8.43825 3.63506 7.87848 3.82764 7.35353ZM6.70654 7.53483L6.04874 9.01087L5.61304 8.07003L5.61975 8.06455L5.60421 8.04564L6.70654 7.53483ZM12.007 7.49649L13.1185 7.99227L12.686 8.96281L12.007 7.49649ZM14.963 7.3927C15.1032 7.78367 15.203 8.19376 15.2581 8.61763L15.2909 8.93803L13.9814 7.86763L14.963 7.3927ZM13.4368 5.3615L13.3453 7.54914L11.871 6.89163L11.2056 5.455L13.4368 5.3615ZM5.43234 5.36685L7.4909 5.45311L6.83363 6.92809L5.52316 7.53541L5.43234 5.36685ZM13.9107 5.57088C14.2183 5.93484 14.4828 6.33611 14.6963 6.76703L14.8183 7.02907L13.8298 7.50754L13.9107 5.57088ZM4.95627 5.4673L5.04161 7.50736L3.97585 6.99178C4.22409 6.43289 4.55608 5.91943 4.95627 5.4673ZM7.93383 5.67997L8.90418 6.11283L7.43823 6.79208L7.93383 5.67997ZM10.753 5.65966L11.2645 6.76453L9.78887 6.10631L10.753 5.65966ZM9.37024 3.52124L10.641 5.07718L9.34303 5.67866L8.07125 5.11164L9.37024 3.52124ZM11.7755 3.96999C12.2178 4.1656 12.6315 4.41386 13.0092 4.7068L13.2314 4.88786L11.2924 4.96899L11.7755 3.96999ZM6.9715 3.98357L7.44784 4.96913L5.54406 4.88941C5.97182 4.52319 6.45187 4.21705 6.9715 3.98357ZM9.84396 3.48467C10.2814 3.51818 10.7061 3.59841 11.1123 3.72183L11.4135 3.82244L10.9323 4.81737L9.84396 3.48467ZM8.89398 3.48774L7.80808 4.81726L7.33262 3.83418C7.82557 3.65106 8.34962 3.53299 8.89398 3.48774Z" fill="#901E24"/>
</svg>
